<svg id="noun-stop-1731403" xmlns="http://www.w3.org/2000/svg" width="160.136" height="160.136" viewBox="0 0 160.136 160.136">
  <g id="Group_4" data-name="Group 4">
    <path id="Path_110" data-name="Path 110" d="M80.068,0A80.068,80.068,0,1,1,0,80.068,79.871,79.871,0,0,1,80.068,0ZM42.446,29.9l87.785,87.785a61.87,61.87,0,0,0,12.541-37.622,62.888,62.888,0,0,0-62.7-62.7A64.051,64.051,0,0,0,42.446,29.9ZM117.69,130.231,29.9,42.446A64.051,64.051,0,0,0,17.364,80.068a62.888,62.888,0,0,0,62.7,62.7A61.87,61.87,0,0,0,117.69,130.231Z" fill="#727272"/>
  </g>
</svg>
